<svg width="39" height="39" viewBox="0 0 39 39" fill="none" xmlns="http://www.w3.org/2000/svg">
<path d="M10.5334 17.1055C12.8162 21.592 16.4942 25.2541 20.9806 27.5528L24.4683 24.0651C24.8964 23.637 25.5305 23.4944 26.0854 23.6846C27.8609 24.2712 29.7792 24.5882 31.745 24.5882C32.6169 24.5882 33.3303 25.3016 33.3303 26.1735V31.7063C33.3303 32.5782 32.6169 33.2916 31.745 33.2916C16.8588 33.2916 4.79449 21.2273 4.79449 6.34118C4.79449 5.46925 5.50789 4.75586 6.37982 4.75586H11.9284C12.8004 4.75586 13.5138 5.46925 13.5138 6.34118C13.5138 8.32283 13.8308 10.2252 14.4174 12.0008C14.5918 12.5556 14.465 13.1739 14.0211 13.6178L10.5334 17.1055Z" fill="#F16625"/>
</svg>
