<svg width="23" height="23" viewBox="0 0 23 23" fill="none" xmlns="http://www.w3.org/2000/svg">
<path d="M20.2502 11.5C20.2502 9.17929 19.3284 6.95363 17.6874 5.31264C16.0464 3.67165 13.8207 2.74975 11.5 2.74975C9.17929 2.74975 6.95363 3.67165 5.31264 5.31264C3.67165 6.95363 2.74975 9.17929 2.74975 11.5C2.74975 13.8207 3.67165 16.0464 5.31264 17.6874C6.95363 19.3284 9.17929 20.2502 11.5 20.2502C13.8207 20.2502 16.0464 19.3284 17.6874 17.6874C19.3284 16.0464 20.2502 13.8207 20.2502 11.5ZM14.3665 8.7415C14.4825 8.62553 14.6202 8.53353 14.7717 8.47077C14.9232 8.408 15.0856 8.3757 15.2496 8.3757C15.4136 8.3757 15.576 8.408 15.7276 8.47077C15.8791 8.53353 16.0168 8.62553 16.1327 8.7415C16.2487 8.85747 16.3407 8.99515 16.4035 9.14668C16.4662 9.29821 16.4986 9.46061 16.4986 9.62463C16.4986 9.78864 16.4662 9.95104 16.4035 10.1026C16.3407 10.2541 16.2487 10.3918 16.1327 10.5077L12.3843 14.2585C12.2682 14.3748 12.1304 14.4671 11.9787 14.5301C11.827 14.5931 11.6643 14.6255 11.5 14.6255C11.3357 14.6255 11.173 14.5931 11.0213 14.5301C10.8696 14.4671 10.7318 14.3748 10.6157 14.2585L6.86613 10.51L6.78062 10.4144C6.58334 10.1747 6.48238 9.87021 6.49743 9.56018C6.51247 9.25015 6.64244 8.95683 6.86199 8.73742C7.08155 8.51801 7.37495 8.38822 7.68499 8.37338C7.99503 8.35854 8.29949 8.45969 8.539 8.65712L8.6335 8.74262L11.5 11.6069L14.3665 8.7415ZM22.75 11.5C22.75 17.7134 17.7134 22.75 11.5 22.75C5.28663 22.75 0.25 17.7134 0.25 11.5C0.25 5.28663 5.28663 0.25 11.5 0.25C17.7134 0.25 22.75 5.28663 22.75 11.5Z" fill="#F16625"/>
</svg>
